<?xml version="1.0" encoding="UTF-8" standalone="no"?>
<svg
   xmlns:dc="http://purl.org/dc/elements/1.1/"
   xmlns:cc="http://creativecommons.org/ns#"
   xmlns:rdf="http://www.w3.org/1999/02/22-rdf-syntax-ns#"
   xmlns:svg="http://www.w3.org/2000/svg"
   xmlns="http://www.w3.org/2000/svg"
   xmlns:sodipodi="http://sodipodi.sourceforge.net/DTD/sodipodi-0.dtd"
   xmlns:inkscape="http://www.inkscape.org/namespaces/inkscape"
   width="758"
   height="1200"
   id="svg3349"
   version="1.1"
   inkscape:version="0.48.4 r9939"
   sodipodi:docname="obey_bkp.svg"
   inkscape:export-filename="/home/hottuna/wip/obey_bkp.png"
   inkscape:export-xdpi="400"
   inkscape:export-ydpi="400">
  <metadata
     id="metadata3399">
    <rdf:RDF>
      <cc:Work
         rdf:about="">
        <dc:format>image/svg+xml</dc:format>
        <dc:type
           rdf:resource="http://purl.org/dc/dcmitype/StillImage" />
        <dc:title></dc:title>
      </cc:Work>
    </rdf:RDF>
  </metadata>
  <defs
     id="defs3397" />
  <sodipodi:namedview
     pagecolor="#ffffff"
     bordercolor="#666666"
     borderopacity="1"
     objecttolerance="10"
     gridtolerance="10"
     guidetolerance="10"
     inkscape:pageopacity="0"
     inkscape:pageshadow="2"
     inkscape:window-width="1060"
     inkscape:window-height="1159"
     id="namedview3395"
     showgrid="false"
     inkscape:zoom="0.39333334"
     inkscape:cx="-245.1856"
     inkscape:cy="531.6263"
     inkscape:window-x="1230"
     inkscape:window-y="95"
     inkscape:window-maximized="0"
     inkscape:current-layer="svg3349" />
  <path
     style="fill:#030202; stroke:none;"
     d="M0 0L0 1200L758 1200L758 0L0 0z"
     id="path3351" />
  <path
     style="fill:#fefdfd; stroke:none;"
     d="M10 14L10 1186L747 1186L747 14L10 14z"
     id="path3353"
     inkscape:export-xdpi="400"
     inkscape:export-ydpi="400" />
  <path
     style="fill:#030202;stroke:none"
     d="m 36,34 0,277 c 10.1053,0 20.1863,-0.454 30,2.439 15.8766,4.681 27.8421,12.653 45,7.815 18.006,-5.077 21.46,-23.536 32.326,-36.239 8.856,-10.354 22.906,-12.742 35.674,-10.58 5.646,0.956 11.613,2.65 15.811,6.778 14.159,13.922 -12.435,35.806 -23.811,41.517 -4.029,2.022 -8.479,3.393 -11.787,6.599 -7.732,7.495 -6.824,20.477 3.788,24.527 8.956,3.418 21.846,-0.388 29.999,-4.464 21.228,-10.614 40.114,-30.699 57.576,-46.508 7.24,-6.555 25.335,-22.726 34.682,-9.695 8.665,12.081 -12.12,37.711 -18.888,46.811 -24.057,32.346 -73.99,60.22 -52.061,108 3.134,6.828 7.559,12.765 13.691,17.214 6.882,4.995 14.848,8.542 23,10.876 14.454,4.14 37.946,6.337 50.996,-2.89 10.101,-7.142 14.401,-23.876 29.004,-23.741 8.405,0.078 17.825,1.099 23.812,7.585 5.645,6.116 7.519,17.416 17.189,18.812 19.258,2.78 18.613,-10.156 30.184,-20.327 5.684,-4.996 14.432,-6.505 21.815,-6.269 16.591,0.53 20.877,19.336 34.001,25.93 30.915,15.533 78.202,-4.475 87.213,-37.19 12.4,-45.013 -38.078,-72.35 -59.494,-103 -5.66,-8.099 -25.328,-34.559 -13.661,-43.347 13.281,-10.005 28.412,7.013 36.941,15.332 6.246,6.093 13.212,11.541 20,17.015 16.434,13.253 39.049,37.57 63,29.775 11.512,-3.746 12.188,-17.081 3.956,-24.632 -3.398,-3.116 -7.958,-4.59 -11.956,-6.773 -12.298,-6.83716 -39.012,-29.97041 -20.995,-42.951 4.134,-3.17 9.919,-4.66 14.995,-5.415 13.475,-2.006 27.184,1.969 35.761,13.011 9.279,11.945 13.954,29.515 30.239,34.058 18.554,5.175 30.794,-3.938 48,-8.49 9.516,-2.517 18.393,-1.663 28,-1.583 l 0,-277 -66,0 c 13.946,13.3555 45.884,35.8585 25.468,58.6991 -5.182,5.7963 -13.316,8.2999 -20.468,10.6309 -16.921,5.515 -35.401,8.354 -53,10.8 -32.371,4.501 -65.253,6.134 -97,14.399 -11.917,3.102 -25.623,6.388 -36,13.231 -14.127,9.317 -24.034,23.711 -32.14,38.24 -27.495,49.287 -33.99,113.763 -3.049,163 13.372,21.279 31.987,38.305 48.474,57 5.732,6.498 16.84,14.884 12.973,24.999 -1.629,4.261 -6.426,8.52 -11.258,7.524 -5.925,-1.221 -11.64,-7.593 -17,-10.494 -7.838,-4.242 -16.306,-5.449 -25,-6.605 -24.083,-3.201 -44.235,14.681 -68,15.317 -23.641,0.632 -43.115,-16.02 -67,-15.737 -18.005,0.213 -26.629,11.281 -42,16.972 -4.562,1.689 -9.436,-0.896 -11.682,-5.019 -7.634,-14.016 15.726,-30.261 23.397,-38.957 26.643,-30.208 51.668,-57.447 56.119,-99 2.103,-19.632 1.863,-40.652 -2.484,-60 -3.533,-15.725 -8.979,-29.933 -16.926,-44 C 308.723,169.598 299.712,153.825 285,143.301 269.308,132.076 246.626,127.935 228,124.576 198.509,119.257 168.65,116.489 139,112.286 121.345,109.782 101.088,107.1 85,99.0293 51.7672,82.3574 81.8518,46.9194 101,34 78.566474,34.052132 62.405792,34 36,34 z"
     id="path3355"
     inkscape:connector-curvature="0"
     sodipodi:nodetypes="cccscscccscccscccsccsccsccccsccccccccccccsccccscscccccsccssssccscc" />
  <path
     style="fill:#fefdfd; stroke:none;"
     d="M219 219.569C203.491 222.394 199.98 244.438 184 247.431C175.995 248.931 167.644 244.111 162.09 238.827C157.282 234.254 152.259 228.013 145.043 232.742C135.753 238.832 137.194 255.677 147.004 260.427C159.32 266.392 180.975 263.687 194 261.385C208.294 258.859 227.434 254.188 236.682 241.996C244.178 232.114 229.274 217.699 219 219.569z"
     id="path3359" />
  <path
     style="fill:#ea4526;stroke:none"
     d="m 423,219 1,1 -1,-1 m -208,1 1,1 -1,-1 m 11,0 1,1 -1,-1 m -13,1 1,1 -1,-1"
     id="path3361"
     inkscape:connector-curvature="0"
     sodipodi:nodetypes="cccccccccccc" />
  <path
     style="fill:#fefdfd; stroke:none;"
     d="M532 221.557C529.485 222.205 527.161 223.491 525 224.901C508.658 235.562 521.316 246.57 534 252.846C550.936 261.225 570.403 263 589 263C595.874 263 604.545 263.574 610.982 260.772C621.176 256.333 618.356 234.292 607.985 231.434C600.746 229.439 597.484 235.196 592.829 239.381C586.548 245.03 576.372 249.779 568 246.387C554.169 240.783 549.924 216.942 532 221.557z"
     id="path3363" />
  <path
     style="fill:#ea4526;stroke:none"
     d="m 189,490 1,1 z"
     id="path3365"
     inkscape:connector-curvature="0"
     sodipodi:nodetypes="ccc" />
  <path
     style="fill:#030202; stroke:none;"
     d="M190.001 490.743C181.148 494.095 176.005 507.368 171.576 515C158.712 537.164 144.206 559.09 132.759 582C129.346 588.832 124.366 609.36 139 605.358C147.69 602.982 155.807 595.295 163 590.14C177.103 580.035 191.362 570.016 206 560.695C212.953 556.268 225.238 552.114 228.437 543.985C234.597 528.329 220.253 506.996 208.996 497.301C204.262 493.224 196.548 488.264 190.001 490.743z"
     id="path3367" />
  <path
     style="fill:#030202; stroke:none;"
     d="M559.004 490.522C544.203 493.569 532.235 514.766 528.029 528C526.138 533.947 524.705 541.334 528.728 546.815C532.778 552.333 541.319 555.455 547 559.053C560.284 567.467 573.212 576.435 586 585.573C594.181 591.418 611.013 608.497 621.942 605.552C632.912 602.595 624.112 583.579 620.793 578C607.169 555.096 593.535 532.205 580.424 509C575.867 500.934 570.442 488.168 559.004 490.522z"
     id="path3371" />
  <path
     style="fill:#ea4526;stroke:none"
     d="m 565,490 1,1 -1,-1 m -378,1 1,1 -1,-1 m 12.667,0.333 c -0.445,0.445 0.611,0.389 0.666,0.334 0.445,-0.445 -0.611,-0.389 -0.666,-0.334 M 555,491 l 1,1 -1,-1 m 12.667,0.333 c -0.445,0.445 0.611,0.389 0.666,0.334 0.445,-0.445 -0.611,-0.389 -0.666,-0.334 M 186,492 l 1,1 -1,-1 m 16,0 1,1 -1,-1 m 367,0 1,1 -1,-1 m -384,1 1,1 -1,-1 m 367,0 1,1 -1,-1 m 18,0 1,1 -1,-1 m -386,1 1,1 -1,-1 m 21,0 1,1 -1,-1 m 366,0 1,1 -1,-1 m -365,1 1,1 -1,-1 m 343,0 1,1 -1,-1 m 23,0 1,1 -1,-1 m -364,1 1,1 -1,-1 m 340,0 1,1 -1,-1 m -366,1 1,1 -1,-1 m 27,0 1,1 -1,-1 m 338,0 1,1 -1,-1 m 26,0 1,1 -1,-1 m -392,1 1,1 -1,-1 m 29,0 1,1 -1,-1 m 336,0 1,1 -1,-1 m 28,0 1,1 -1,-1 m -363,1 1,1 -1,-1 m 334,0 1,1 -1,-1 m -333,1 1,1 -1,-1 m 332,0 1,1 -1,-1 m 31,0 1,1 -1,-1 m -396,1 1,1 -1,-1 m 34,0 1,1 -1,-1 m 330,0 1,1 -1,-1 m -329,1 1,1 -1,-1 m 328,0 1,1 -1,-1 m -364,1 1,1 -1,-1 m 399,0 1,1 -1,-1 m -362,1 1,1 -1,-1 m 1,1 1,1 -1,-1 m 324,0 1,1 -1,-1 m 38,0 1,1 -1,-1 m -402,1 1,1 -1,-1 m 41,0 1,1 -1,-1 m 322,0 1,1 -1,-1 m -321,1 1,1 -1,-1 m 361,0 1,1 -1,-1 m -404,1 1,1 -1,-1 m 44,1 1,1 -1,-1 m 318,0 1,1 -1,-1 m 43,0 1,1 -1,-1 m -360,1 1,1 -1,-1 m 316,0 1,1 -1,-1 m -363,1 1,1 -1,-1 m 48,1 1,1 -1,-1 m 314,0 1,1 -1,-1 m 47,0 1,1 -1,-1 m -410,1 1,1 -1,-1 m 50,1 1,1 -1,-1 m 312,0 1,1 -1,-1 m 49,0 1,1 -1,-1 m -412,1 1,1 -1,-1 m 362,0 1,1 -1,-1 m -363,1 1,1 -1,-1 m 414,0 1,1 -1,-1 m -360,1 1,1 -1,-1 m 308,0 1,1 -1,-1 m -363,1 1,1 -1,-1 m 416,0 1,1 -1,-1 m -54,1 1,1 -1,-1 m -363,1 1,1 -1,-1 m 57,0 1,1 -1,-1 m 305,1 1,1 -1,-1 m 57,0 1,1 -1,-1 m -361,1 1,1 -1,-1 m -60,1 1,1 -1,-1 m 422,0 1,1 -1,-1 m -361,1 1,1 -1,-1 m -62,1 1,1 -1,-1 m 363,1 1,1 -1,-1 m 62,0 1,1 -1,-1 m -426,1 1,1 -1,-1 m 64,0 1,1 -1,-1 m 363,1 1,1 -1,-1 m -428,1 1,1 -1,-1 m 364,0 1,1 -1,-1 m -365,1 1,1 -1,-1 m 430,0 1,1 -1,-1 m -431,2 1,1 -1,-1 m 365.333,0.667 c -0.055,0.055 -0.111,1.111 0.334,0.666 0.055,-0.055 0.111,-1.111 -0.334,-0.666 M 594,533 l 1,1 -1,-1 m -434,1 1,1 -1,-1 m 435,1 1,1 -1,-1 m -437,2 1,1 -1,-1 m 438,0 1,1 -1,-1 m 1,1 1,1 -1,-1 m -440,1 1,1 -1,-1 m 441,1 1,1 -1,-1 m -442,1 1,1 -1,-1 m 370,0 0,3 c 0.696,-1.554 0.696,-1.446 0,-3 m 73,1 1,1 -1,-1 m 1,1 1,1 -1,-1 m -446,1 1,1 -1,-1 m 74,0 1,1 -1,-1 m 299,1 1,1 -1,-1 m 74,0 1,1 -1,-1 m -448,1 1,1 -1,-1 m 74,0 1,1 -1,-1 m 375,1 1,1 -1,-1 m -450,1 1,1 -1,-1 m 377,0 1,1 -1,-1 m -305,1 1,1 -1,-1 m 307,0 1,1 -1,-1 m -309,1 1,1 -1,-1 m 382,0 1,1 -1,-1 m -454,1 1,1 -1,-1 m 384,0 1,1 -1,-1 m -315,1 1,1 -1,-1 m 317,0 1,1 -1,-1 m 69,0 1,1 -1,-1 m -456,1 1,1 -1,-1 m 68,0 1,1 -1,-1 m 322,1 1,1 -1,-1 m 67,0 1,1 -1,-1 m -458,1 1,1 -1,-1 m 66,0 1,1 -1,-1 m 327,0 1,1 -1,-1 m -394,1 1,1 -1,-1 m 395,0 1,1 -1,-1 m -331,1 1,1 -1,-1 m 333,0 1,1 -1,-1 m 64,0 1,1 -1,-1 m -462,1 1,1 -1,-1 m 63,0 1,1 -1,-1 m 337,0 1,1 -1,-1 m -339,1 1,1 -1,-1 m 340,0 1,1 -1,-1 m 62,0 1,1 -1,-1 m -464,1 1,1 -1,-1 m 61,0 1,1 -1,-1 m 343,0 1,1 -1,-1 m -405,1 1,1 -1,-1 m 60,0 1,1 -1,-1 m -1,1 1,1 -1,-1 m 349,0 1,1 -1,-1 m 59,0 1,1 -1,-1 m -468,1 1,1 -1,-1 m 58,0 1,1 -1,-1 m -1,1 1,1 -1,-1 m 355,0 1,1 -1,-1 m 57,0 1,1 -1,-1 m -470,1 1,1 -1,-1 m 56,0 1,1 -1,-1 m 360,1 1,1 -1,-1 m -363,1 1,1 -1,-1 m 365,0 1,1 -1,-1 m 54,0 1,1 -1,-1 m -474,1 1,1 -1,-1 m 54,0 1,1 -1,-1 m 367,0 1,1 -1,-1 m -369,1 1,1 -1,-1 m 423,0 1,1 -1,-1 m -476,1 1,1 -1,-1 m 52,0 1,1 -1,-1 m 373,0 1,1 -1,-1 m -375,1 1,1 -1,-1 m 376,0 1,1 -1,-1 m 51,0 1,1 -1,-1 m -428,1 1,1 -1,-1 m 379,0 1,1 -1,-1 m 50,0 1,1 -1,-1 m -480,1 1,1 -1,-1 m 49,0 1,1 -1,-1"
     id="path3373"
     inkscape:connector-curvature="0"
     sodipodi:nodetypes="cccccccscccccscccccccccccccccccccccccccccccccccccccccccccccccccccccccccccccccccccccccccccccccccccccccccccccccccccccccccccccccccccccccccccccccccccccccccccccccccccccccccccccccccccccccccccccccccccccccccccccccccccccccccccccccccccccccccccccccccccccccccccccccccccccccccccccccccscccccccccccccccccccccccccccccccccccccccccccccccccccccccccccccccccccccccccccccccccccccccccccccccccccccccccccccccccccccccccccccccccccccccccccccccccccccccccccccccccccccccccccccccccccccccccccccccccccccccccccccccccccccccccccccccccccccccccccccccccccccccccc" />
  <path
     style="fill:#030202; stroke:none;"
     d="M307 574.439C288.679 577.295 275.408 587.158 259 594.691C244.109 601.528 228.151 605.416 213 611.603C205.26 614.764 188.476 620.749 188.427 631C188.355 645.763 217.309 658.186 228 664.6C259.613 683.568 296.406 690.946 328 709.285C336.043 713.953 343.564 720.263 349.957 727.001C353.598 730.838 356.133 736.074 361.004 738.543C367.822 741.999 381.556 740.776 389 739.7C397.954 738.406 399.829 732.687 405.518 726.804C412.334 719.755 420.505 713.319 429 708.428C462.051 689.401 500.217 681.833 533 661.424C542.853 655.29 572.163 642.188 566.107 627.04C564.048 621.891 557.633 619.107 553 616.756C541.492 610.917 529.163 606.879 517 602.656C499.078 596.434 483.677 585.088 466 578.865C453.009 574.292 439.643 573.675 426 574.015C408.146 574.459 394.374 589.146 376 587.911C351.299 586.249 333.187 570.357 307 574.439z"
     id="path3375" />
  <path
     style="fill:#ea4526;stroke:none"
     d="m 570,574 1,1 -1,-1 m 48,0 1,1 -1,-1 m -482,1 1,1 -1,-1 m 47,0 1,1 -1,-1 m 271,0 1,1 -1,-1 m 165,0 1,1 -1,-1 m -484,1 1,1 -1,-1 m 47,0 1,1 -1,-1 m 231,0 1,1 -1,-1 m 160,0 1,1 -1,-1 m -280,1 1,1 -1,-1 m 50,0 1,1 -1,-1 m 67,0 1,1 -1,-1 m 164,0 1,1 -1,-1 m 46,0 1,1 -1,-1 m -486,1 1,1 -1,-1 m 45,0 1,1 -1,-1 m 111,0 1,1 -1,-1 m 56,0 1,1 -1,-1 m 62,0 1,1 -1,-1 m 57,0 1,1 -1,-1 m 111,0 1,1 -1,-1 m -289,1 1,1 -1,-1 m 60,0 1,1 -1,-1 m 59,0 1,1 -1,-1 m 61,0 1,1 -1,-1 m 110,0 1,1 -1,-1 m 44,0 1,1 -1,-1 m -488,1 1,1 -1,-1 m 43,0 1,1 -1,-1 m 109,0 1,1 -1,-1 m 64,0 1,1 -1,-1 m 55,0 1,1 -1,-1 m 66,0 1,1 -1,-1 m 109,0 1,1 -1,-1 m -404,1 1,1 -1,-1 m 177,0 1,1 -1,-1 m 50,0 1,1 -1,-1 m 70,0 1,1 -1,-1 m 108,0 1,1 -1,-1 m -448,1 1,1 -1,-1 m 41,0 1,1 -1,-1 m 182,0 1,1 -1,-1 m 45,0 1,1 -1,-1 m 74,0 1,1 -1,-1 m -302,1 1,1 -1,-1 m 107,0 1,1 -1,-1 m 78,0 1,1 -1,-1 m 40,0 1,1 -1,-1 m 79,0 1,1 -1,-1 m 107,0 1,1 -1,-1 m -452,1 1,1 -1,-1 m 39,0 1,1 -1,-1 m 107,0 1,1 -1,-1 m 118,0 1,1 -1,-1 m 83,0 1,1 -1,-1 m -309,1 1,1 -1,-1 m 310,0 1,1 -1,-1 m 145,0 1,1 -1,-1 m -494,1 1,1 -1,-1 m 144,0 1,1 -1,-1 m 92,0 1,1 -1,-1 m 24,0 1,1 -1,-1 m 91,0 1,1 -1,-1 m 106,0 1,1 -1,-1 m -421,1 1,1 -1,-1 m 106,0 1,1 -1,-1 m 318,1 1,1 -1,-1 m -427,1 1,1 -1,-1 m 106,0 1,1 -1,-1 m 217,0 1,1 -1,-1 m -324,1 1,1 -1,-1 m 105,0 1,1 -1,-1 m 221,0 1,1 -1,-1 m 105,0 1,1 -1,-1 m 33,0 1,1 -1,-1 m -361,1 1,1 -1,-1 m 225,0 1,1 -1,-1 m 104,0 1,1 -1,-1 m -435,1 1,1 -1,-1 m 104,0 1,1 -1,-1 m 229,0 1,1 -1,-1 m 104,0 1,1 -1,-1 m -335,1 1,1 -1,-1 m 233,0 1,1 -1,-1 m 103,0 1,1 -1,-1 m -441,1 1,1 -1,-1 m 103,0 1,1 -1,-1 m 339,0 1,1 -1,-1 m -443,1 1,1 -1,-1 m 102,0 1,1 -1,-1 m 241,0 1,1 -1,-1 m 102,0 1,1 -1,-1 m -346,1 1,1 -1,-1 m 247,0 1,1 -1,-1 m 100,0 1,1 -1,-1 m -449,1 1,1 -1,-1 m 100,0 1,1 -1,-1 m 251,0 1,1 -1,-1 m -352,1 1,1 -1,-1 m 453,0 1,1 -1,-1 m -455,1 1,1 -1,-1 m 98,0 1,1 -1,-1 m 261,0 1,1 -1,-1 m 97,0 1,1 -1,-1 m -457,1 1,1 -1,-1 m 96,0 1,1 -1,-1 m 267,0 1,1 -1,-1 m 96,0 1,1 -1,-1 m -461,1 1,1 -1,-1 m 462,0 1,1 -1,-1 m -463,1 1,1 -1,-1 m 93,0 1,1 -1,-1 m 278,0 1,1 -1,-1 m -281,1 1,1 -1,-1 m 284,0 1,1 -1,-1 m 92,0 1,1 -1,-1 m -481,1 1,1 -1,-1 m 11.667,0.333 c -0.445,0.445 0.611,0.389 0.666,0.334 0.445,-0.445 -0.611,-0.389 -0.666,-0.334 M 522,604 l 1,1 -1,-1 m 91,0 1,1 -1,-1 m -481,1 1,1 -1,-1 m 7,0 1,1 -1,-1 m 90,0 1,1 -1,-1 m 296,0 1,1 -1,-1 m 90.667,0.333 c -0.445,0.445 0.611,0.389 0.666,0.334 0.445,-0.445 -0.611,-0.389 -0.666,-0.334 M 623,605 l 1,1 -1,-1 m -397,1 1,1 -1,-1 m 302,0 1,1 -1,-1 m -305,1 1,1 -1,-1 m 307,0 1,1 -1,-1 m -310,1 1,1 -1,-1 m 313,0 1,1 -1,-1 m -318,2 1,1 -1,-1 m 324,0 1,1 -1,-1 m -326,1 1,1 -1,-1 m 328,0 1,1 -1,-1 m -331,1 1,1 -1,-1 m 336,1 1,1 -1,-1 m -340,1 1,1 -1,-1 m 342,0 1,1 -1,-1 m -344,1 1,1 -1,-1 m 346,0 1,1 -1,-1 m -348,1 1,1 -1,-1 m 350,0 1,1 -1,-1 m -352,1 1,1 -1,-1 m 354,0 1,1 -1,-1 m -357,2 1,1 -1,-1 m 362,1 1,1 -1,-1 m -365,1 1,1 -1,-1 m 367,0 1,1 -1,-1 m 1,1 1,1 -1,-1 m -371,1 1,1 -1,-1 m -1,1 1,1 -1,-1"
     id="path3377"
     inkscape:connector-curvature="0"
     sodipodi:nodetypes="cccccccccccccccccccccccccccccccccccccccccccccccccccccccccccccccccccccccccccccccccccccccccccccccccccccccccccccccccccccccccccccccccccccccccccccccccccccccccccccccccccccccccccccccccccccccccccccccccccccccccccccccccccccccccccccccccccccccccccccccccccccccccccccccccccccccccccccccccccccccccccccccccccccccccccccccccccccccccccccccccccccccccccccccccccccccccccccccccccsccccccccccccccccccccsccccccccccccccccccccccccccccccccccccccccccccccccccccccccccccccccccccccccccccccccccccc" />
  <path
     style="fill:#fefdfd; stroke:none;"
     d="M300 625.424C293.895 626.226 275.112 625.127 273.362 633.188C271.398 642.23 288.846 652.971 295 657.279C318.247 673.551 353.723 691.664 383 688.83C411.517 686.07 441.111 671.187 464 654.706C468.84 651.221 488.779 638.042 480.678 630.702C475.609 626.109 465.404 626.321 459 625.964C441.625 624.997 423.646 622.605 409.001 634.379C397.758 643.417 393.99 658.313 377 657.871C360.723 657.448 357.989 643.102 346.996 634.529C333.981 624.38 315.821 623.347 300 625.424z"
     id="path3379" />
  <path
     style="fill:#030202;stroke:none"
     d="m 719,628 c -7.228,25.661 -16.319,51.142 -28.247,75 -4.504,9.01 -11.978,24.081 -5.895,33.985 5.888,9.586 32.6014,11.76179 34.489,-0.989 C 720.41081,728.8099 720,718.43328 720,711 c -1.19433,-83.09906 -0.16311,0.24274 -1,-83 m -683,1 0,82.63559 c 0,0 -1.11502,22.70661 3.2284,29.08541 C 49.9189,751.089 74.2158,742.851 72.8256,727 71.1879,708.327 58.3281,690.197 51.4491,673 45.9384,659.224 43.6726,641.559 36,629 z"
     id="path3383"
     inkscape:connector-curvature="0"
     sodipodi:nodetypes="cccscccccssc" />
  <path
     style="fill:#030202;stroke:none"
     d="m 36,784 0,115 684,0 0,-115 c -8.097,4.336 -13.386,15.995 -19.246,23 -17.278,20.654 -48.652,54.648 -79.754,47.471 -4.068,-0.939 -7.668,-3.197 -11,-5.63 -26.42,-19.295 4.58,-45.548 14.672,-64.841 4.742,-9.066 0.557,-22.518 -11.672,-19.214 -17.023,4.6 -28.232,20.075 -45,25.326 -8.385,2.626 -24.47,0.616 -30.606,7.116 -5.808,6.154 -5.958,18.159 -9.764,25.772 -7.54,15.079 -19.337,29.192 -32.63,39.486 -12.085,9.359 -28.505,13.566 -43,17.525 -39.883,10.894 -84.331,13.862 -125,5.476 -36.065,-7.437 -66.731,-16.71 -89.622,-47.487 -5.374,-7.226 -10.139,-15.435 -13.022,-24 -1.98,-5.881 -2.318,-13.38 -7.464,-17.566 -8.215,-6.683 -26.612,-4.871 -36.892,-9.754 -12.605,-5.987 -26.037,-22.922 -41,-22.478 -9.955,0.296 -12.494,11.447 -8.673,18.798 7.725,14.861 34.83,38.415 24.035,56.996 -20.074,34.553 -68.4382,1.389 -86.1922,-18 L 53.0864,805 C 46.9885,798.334 43.3306,789.399 36,784 z"
     id="path3387"
     inkscape:connector-curvature="0"
     sodipodi:nodetypes="ccccscccccccccsccccccsccc" />
  <path
     style="fill:#ea4526;stroke:none"
     d="m 720,899 -684,0 0,277 684,0 0,-269"
     id="path3389"
     inkscape:connector-curvature="0"
     sodipodi:nodetypes="ccccc" />
  <path
     style="fill:#fefdfd;stroke:none"
     d="m 161,927.424 c -51.912,6.9 -79.2732,52.311 -90.2353,99.576 -3.3254,14.34 -6.2778,30.24 -4.3403,45 1.7779,13.54 2.6975,27.26 8.3009,40 10.3024,23.42 35.2637,39.67 61.2747,36.71 67.078,-7.61 99.9,-75.55 100,-137.71 0.071,-43.945 -24.108,-90.34 -75,-83.576 M 264,931 c -5.951,47.089 -14.194,94.2 -22.081,141 -3.989,23.67 -10.903,48.97 -10.919,73 40.164,0 96.25,10.16 130.039,-16.47 28.035,-22.09 44.356,-88.47 -7.039,-92.53 10.542,-4.04 20.547,-5.58 28.957,-14.04 25.391,-25.54 20.181,-66.998 -11.381,-83.506 C 357.041,930.852 339.907,931 324,931 l -60,0 m 127,214 109,0 c 7.02705,-51.2769 -0.25077,-0.4673 7,-51 l -49,0 c 4.16136,-31.4568 -0.11766,0.072 4,-32 43.93914,-1.2141 0.33561,-0.018 43.486,-1.18 9.66522,-49.9016 0.10453,-0.4658 9.514,-49.82 l -44,0 c 4.23256,-29.15559 0.054,-0.2092 4,-29 l 51,0 c 7.03853,-50.83744 -0.0929,-0.19656 7,-51 -107.30284,0.95676 -0.36677,0.24839 -107.4,1.028 -34.33162,212.9335 -0.18633,0.0196 -34.6,212.972 M 539,931 c 32.14833,121.7442 0.0282,0.2844 32.497,122 -13.59555,92.028 0.15467,0.181 -13.497,92 l 58,0 c 15.39654,-92.0495 0.39022,0.063 15.278,-92 2.37929,-4.0873 67.58596,-118.54654 68.722,-122 -1.10312,0.29113 -59.61,1.028 -59.61,1.028 -31.33885,63.69309 -0.0436,0.0858 -31.39,63.972 -8.98189,-64.30908 0.22736,0.32651 -9,-65 z"
     id="path3391"
     inkscape:connector-curvature="0"
     sodipodi:nodetypes="cccccsccscccccscccccccccccccccccccccccc" />
  <path
     style="fill:#ea4526;stroke:none"
     d="m 315,977 c -4.98215,36.8823 0.0229,0.42746 -5,37 7.826,0 15.934,-0.54 22.266,-5.8 7.31,-6.08 10.48,-21.447 1.715,-27.636 C 328.802,976.908 321.065,977.004 315,977 m -158.999,4.725 c -10.628,2.98 -14.19,12.164 -18.375,21.275 -9.149,19.92 -11.73,43.3 -11.625,65 0.055,11.48 4.132,30.58 19.909,26.29 8.879,-2.41 14.337,-11.64 18.131,-19.29 9.916,-19.98 11.994,-45.09 11.959,-67 -0.019,-11.763 -3.678,-30.85 -19.999,-26.275 M 302,1058 c -6.15114,40.2949 -0.15164,0.1595 -6,41 8.925,-0.01 18.67,-1.16 25.535,-7.53 8.792,-8.14 11.238,-25.74 -1.536,-31.5 C 314.382,1057.44 307.997,1058 302,1058 z"
     id="path3393"
     inkscape:connector-curvature="0"
     sodipodi:nodetypes="ccccccccccccccccc" />
</svg>
